<svg xmlns="http://www.w3.org/2000/svg" width="1024" height="672" viewBox="0 0 1024 672" role="img">
<defs><marker id="a" markerWidth="8" markerHeight="8" refX="7" refY="3" orient="auto"><path d="M0,0 L0,6 L8,3 z" fill="#D86F48"/></marker></defs>
<rect width="1024" height="672" fill="#F7F5F0"/>
<path d="M42 0 V94 M58 0 V132" stroke="#24483D" stroke-width="2" opacity=".55"/>
<path d="M982 672 V578 M966 672 V540" stroke="#24483D" stroke-width="2" opacity=".55"/>
<text x="64" y="64" text-anchor="start" font-family="Inter,Arial,sans-serif" font-size="31" font-weight="700" fill="#24483D"><tspan x="64" dy="0">Energie besparen</tspan></text>
<text x="64" y="96" text-anchor="start" font-family="Inter,Arial,sans-serif" font-size="16" font-weight="400" fill="#66706A"><tspan x="64" dy="0">Van eenvoudige ingrepen naar structurele maatregelen</tspan></text>
<line x1="64" y1="118" x2="960" y2="118" stroke="#D7D7CF" stroke-width="1"/>
<path d="M 168.0 285 H 256.0" stroke="#D86F48" stroke-width="3" marker-end="url(#a)"/>
<path d="M 368.0 285 H 456.0" stroke="#D86F48" stroke-width="3" marker-end="url(#a)"/>
<path d="M 568.0 285 H 656.0" stroke="#D86F48" stroke-width="3" marker-end="url(#a)"/>
<path d="M 768.0 285 H 856.0" stroke="#D86F48" stroke-width="3" marker-end="url(#a)"/>
<circle cx="112.0" cy="285" r="54" fill="#FFFFFF" stroke="#24483D" stroke-width="4"/>
<g stroke="#24483D" stroke-width="3" fill="none" stroke-linecap="round" stroke-linejoin="round"><rect x="98.08" y="272.24" width="27.839999999999996" height="25.52" rx="2.9"/><path d="M 104.46000000000001 280.36 H 119.53999999999999 M 104.46000000000001 286.74 H 116.64 M 104.46000000000001 293.12 H 113.16"/></g>
<circle cx="74.0" cy="243" r="18" fill="#D86F48"/>
<text x="74.0" y="249" text-anchor="middle" font-family="Inter,Arial,sans-serif" font-size="14" font-weight="700" fill="#FFFFFF"><tspan x="74.0" dy="0">1</tspan></text>
<text x="112.0" y="373" text-anchor="middle" font-family="Inter,Arial,sans-serif" font-size="18" font-weight="700" fill="#202421"><tspan x="112.0" dy="0">Gedrag &amp;</tspan><tspan x="112.0" dy="21">instellingen</tspan></text>
<circle cx="312.0" cy="285" r="54" fill="#FFFFFF" stroke="#24483D" stroke-width="4"/>
<g stroke="#24483D" stroke-width="3" fill="none" stroke-linecap="round" stroke-linejoin="round"><rect x="297.5" y="272.24" width="28.999999999999996" height="6.959999999999999" rx="1.16"/><rect x="300.4" y="282.68" width="23.2" height="6.959999999999999" rx="1.16"/><rect x="303.3" y="293.12" width="17.4" height="6.959999999999999" rx="1.16"/></g>
<circle cx="274.0" cy="243" r="18" fill="#D86F48"/>
<text x="274.0" y="249" text-anchor="middle" font-family="Inter,Arial,sans-serif" font-size="14" font-weight="700" fill="#FFFFFF"><tspan x="274.0" dy="0">2</tspan></text>
<text x="312.0" y="373" text-anchor="middle" font-family="Inter,Arial,sans-serif" font-size="18" font-weight="700" fill="#202421"><tspan x="312.0" dy="0">Isolatie &amp; glas</tspan></text>
<circle cx="512.0" cy="285" r="54" fill="#FFFFFF" stroke="#24483D" stroke-width="4"/>
<g stroke="#24483D" stroke-width="3" fill="none" stroke-linecap="round" stroke-linejoin="round"><path d="M 495.76 276.88 H 516.64 Q 524.76 276.88 524.76 283.84 Q 524.76 290.8 516.64 290.8 H 506.2"/><path d="M 497.5 296.6 H 513.16 Q 520.12 296.6 520.12 290.8"/></g>
<circle cx="474.0" cy="243" r="18" fill="#D86F48"/>
<text x="474.0" y="249" text-anchor="middle" font-family="Inter,Arial,sans-serif" font-size="14" font-weight="700" fill="#FFFFFF"><tspan x="474.0" dy="0">3</tspan></text>
<text x="512.0" y="373" text-anchor="middle" font-family="Inter,Arial,sans-serif" font-size="18" font-weight="700" fill="#202421"><tspan x="512.0" dy="0">Ventilatie</tspan></text>
<circle cx="712.0" cy="285" r="54" fill="#FFFFFF" stroke="#24483D" stroke-width="4"/>
<g stroke="#24483D" stroke-width="3" fill="none" stroke-linecap="round" stroke-linejoin="round"><path d="M 701.56 298.92 Q 693.44 288.48 702.14 279.78 Q 709.68 272.24 706.2 267.6 Q 720.12 274.56 723.02 285.58 Q 725.34 296.6 712.0 302.98"/><path d="M 709.1 296.6 Q 705.04 289.06 713.16 282.68 Q 719.54 289.64 716.06 296.6"/></g>
<circle cx="674.0" cy="243" r="18" fill="#D86F48"/>
<text x="674.0" y="249" text-anchor="middle" font-family="Inter,Arial,sans-serif" font-size="14" font-weight="700" fill="#FFFFFF"><tspan x="674.0" dy="0">4</tspan></text>
<text x="712.0" y="373" text-anchor="middle" font-family="Inter,Arial,sans-serif" font-size="18" font-weight="700" fill="#202421"><tspan x="712.0" dy="0">Verwarming</tspan></text>
<circle cx="912.0" cy="285" r="54" fill="#FFFFFF" stroke="#24483D" stroke-width="4"/>
<g stroke="#24483D" stroke-width="3" fill="none" stroke-linecap="round" stroke-linejoin="round"><circle cx="912.0" cy="285" r="8.7"/><path d="M 912.0 273.3072 L 912.0 268.76"/><path d="M 912.0 296.6928 L 912.0 301.24"/><path d="M 900.3072 285.0 L 895.76 285.0"/><path d="M 923.6928 285.0 L 928.24 285.0"/><path d="M 903.648 276.648 L 900.4 273.4"/><path d="M 920.352 276.648 L 923.6 273.4"/><path d="M 903.648 293.352 L 900.4 296.6"/><path d="M 920.352 293.352 L 923.6 296.6"/></g>
<circle cx="874.0" cy="243" r="18" fill="#D86F48"/>
<text x="874.0" y="249" text-anchor="middle" font-family="Inter,Arial,sans-serif" font-size="14" font-weight="700" fill="#FFFFFF"><tspan x="874.0" dy="0">5</tspan></text>
<text x="912.0" y="373" text-anchor="middle" font-family="Inter,Arial,sans-serif" font-size="18" font-weight="700" fill="#202421"><tspan x="912.0" dy="0">Opwekking</tspan></text>
</svg>