<svg xmlns="http://www.w3.org/2000/svg" width="1024" height="672" viewBox="0 0 1024 672" role="img">
<rect width="1024" height="672" fill="#F7F5F0"/>
<path d="M42 0 V94 M58 0 V132" stroke="#24483D" stroke-width="2" opacity=".55"/>
<path d="M982 672 V578 M966 672 V540" stroke="#24483D" stroke-width="2" opacity=".55"/>
<text x="64" y="64" text-anchor="start" font-family="Inter,Arial,sans-serif" font-size="31" font-weight="700" fill="#24483D"><tspan x="64" dy="0">Renovatiefasen</tspan></text>
<text x="64" y="96" text-anchor="start" font-family="Inter,Arial,sans-serif" font-size="16" font-weight="400" fill="#66706A"><tspan x="64" dy="0">Zeven beslismomenten van idee tot oplevering</tspan></text>
<line x1="64" y1="118" x2="960" y2="118" stroke="#D7D7CF" stroke-width="1"/>
<rect x="94" y="210" width="188" height="132" rx="18" fill="#FFFFFF" stroke="#D7D7CF"/>
<circle cx="140" cy="258" r="31" fill="#ECE8DF"/>
<g stroke="#24483D" stroke-width="3" fill="none" stroke-linecap="round" stroke-linejoin="round"><circle cx="136.4" cy="255.3" r="7.65"/><path d="M 141.8 261.15 L 151.25 270.6"/></g>
<text x="182" y="252" text-anchor="start" font-family="Inter,Arial,sans-serif" font-size="13" font-weight="700" fill="#D86F48"><tspan x="182" dy="0">01</tspan></text>
<text x="182" y="280" text-anchor="start" font-family="Inter,Arial,sans-serif" font-size="17" font-weight="700" fill="#202421"><tspan x="182" dy="0">Inventarisatie</tspan></text>
<rect x="306" y="210" width="188" height="132" rx="18" fill="#FFFFFF" stroke="#D7D7CF"/>
<circle cx="352" cy="258" r="31" fill="#ECE8DF"/>
<g stroke="#24483D" stroke-width="3" fill="none" stroke-linecap="round" stroke-linejoin="round"><rect x="341.2" y="248.1" width="21.6" height="19.8" rx="2.25"/><path d="M 346.15 254.4 H 357.85 M 346.15 259.35 H 355.6 M 346.15 264.3 H 352.9"/></g>
<text x="394" y="252" text-anchor="start" font-family="Inter,Arial,sans-serif" font-size="13" font-weight="700" fill="#D86F48"><tspan x="394" dy="0">02</tspan></text>
<text x="394" y="280" text-anchor="start" font-family="Inter,Arial,sans-serif" font-size="17" font-weight="700" fill="#202421"><tspan x="394" dy="0">Ontwerp &amp; scope</tspan></text>
<rect x="518" y="210" width="188" height="132" rx="18" fill="#FFFFFF" stroke="#D7D7CF"/>
<circle cx="564" cy="258" r="31" fill="#ECE8DF"/>
<g stroke="#24483D" stroke-width="3" fill="none" stroke-linecap="round" stroke-linejoin="round"><circle cx="564" cy="258" r="11.700000000000001"/><path d="M 558.15 258.45 L 562.65 262.95 L 571.65 252.15"/></g>
<text x="606" y="252" text-anchor="start" font-family="Inter,Arial,sans-serif" font-size="13" font-weight="700" fill="#D86F48"><tspan x="606" dy="0">03</tspan></text>
<text x="606" y="280" text-anchor="start" font-family="Inter,Arial,sans-serif" font-size="17" font-weight="700" fill="#202421"><tspan x="606" dy="0">Haalbaarheid</tspan></text>
<rect x="730" y="210" width="188" height="132" rx="18" fill="#FFFFFF" stroke="#D7D7CF"/>
<circle cx="776" cy="258" r="31" fill="#ECE8DF"/>
<g stroke="#24483D" stroke-width="3" fill="none" stroke-linecap="round" stroke-linejoin="round"><circle cx="776" cy="258" r="11.25"/><text x="776" y="261.6" text-anchor="middle" font-family="Inter,Arial,sans-serif" font-size="12" font-weight="700" fill="#24483D"><tspan x="776" dy="0">€</tspan></text></g>
<text x="818" y="252" text-anchor="start" font-family="Inter,Arial,sans-serif" font-size="13" font-weight="700" fill="#D86F48"><tspan x="818" dy="0">04</tspan></text>
<text x="818" y="280" text-anchor="start" font-family="Inter,Arial,sans-serif" font-size="17" font-weight="700" fill="#202421"><tspan x="818" dy="0">Begroting &amp;</tspan><tspan x="818" dy="20">contractering</tspan></text>
<rect x="94" y="388" width="188" height="132" rx="18" fill="#FFFFFF" stroke="#D7D7CF"/>
<circle cx="140" cy="436" r="31" fill="#ECE8DF"/>
<g stroke="#24483D" stroke-width="3" fill="none" stroke-linecap="round" stroke-linejoin="round"><path d="M 131.0 423.4 H 144.5 L 149.9 428.8 V 449.5 H 131.0 Z"/><path d="M 144.5 423.4 V 428.8 H 149.9"/><path d="M 135.5 434.65 H 144.95 M 135.5 439.6 H 144.95 M 135.5 444.55 H 142.25"/></g>
<text x="182" y="430" text-anchor="start" font-family="Inter,Arial,sans-serif" font-size="13" font-weight="700" fill="#D86F48"><tspan x="182" dy="0">05</tspan></text>
<text x="182" y="458" text-anchor="start" font-family="Inter,Arial,sans-serif" font-size="17" font-weight="700" fill="#202421"><tspan x="182" dy="0">Uitvoeringsvoorbere</tspan><tspan x="182" dy="20">iding</tspan></text>
<rect x="306" y="388" width="188" height="132" rx="18" fill="#FFFFFF" stroke="#D7D7CF"/>
<circle cx="352" cy="436" r="31" fill="#ECE8DF"/>
<g stroke="#24483D" stroke-width="3" fill="none" stroke-linecap="round" stroke-linejoin="round"><path d="M 340.75 445.9 L 358.3 428.35"/><path d="M 355.15 425.2 Q 363.25 422.05 365.05 430.15 L 359.2 436"/><circle cx="344.35" cy="442.75" r="3.15"/></g>
<text x="394" y="430" text-anchor="start" font-family="Inter,Arial,sans-serif" font-size="13" font-weight="700" fill="#D86F48"><tspan x="394" dy="0">06</tspan></text>
<text x="394" y="458" text-anchor="start" font-family="Inter,Arial,sans-serif" font-size="17" font-weight="700" fill="#202421"><tspan x="394" dy="0">Uitvoering &amp;</tspan><tspan x="394" dy="20">wijzigingen</tspan></text>
<rect x="518" y="388" width="188" height="132" rx="18" fill="#FFFFFF" stroke="#D7D7CF"/>
<circle cx="564" cy="436" r="31" fill="#ECE8DF"/>
<g stroke="#24483D" stroke-width="3" fill="none" stroke-linecap="round" stroke-linejoin="round"><circle cx="564" cy="436" r="11.700000000000001"/><path d="M 558.15 436.45 L 562.65 440.95 L 571.65 430.15"/></g>
<text x="606" y="430" text-anchor="start" font-family="Inter,Arial,sans-serif" font-size="13" font-weight="700" fill="#D86F48"><tspan x="606" dy="0">07</tspan></text>
<text x="606" y="458" text-anchor="start" font-family="Inter,Arial,sans-serif" font-size="17" font-weight="700" fill="#202421"><tspan x="606" dy="0">Oplevering</tspan></text>
</svg>