<svg xmlns="http://www.w3.org/2000/svg" width="1024" height="672" viewBox="0 0 1024 672" role="img">
<rect width="1024" height="672" fill="#F7F5F0"/>
<path d="M42 0 V94 M58 0 V132" stroke="#24483D" stroke-width="2" opacity=".55"/>
<path d="M982 672 V578 M966 672 V540" stroke="#24483D" stroke-width="2" opacity=".55"/>
<text x="64" y="64" text-anchor="start" font-family="Inter,Arial,sans-serif" font-size="31" font-weight="700" fill="#24483D"><tspan x="64" dy="0">Zelf doen of uitbesteden?</tspan></text>
<text x="64" y="96" text-anchor="start" font-family="Inter,Arial,sans-serif" font-size="16" font-weight="400" fill="#66706A"><tspan x="64" dy="0">Beoordeel de taak, niet het hele project</tspan></text>
<line x1="64" y1="118" x2="960" y2="118" stroke="#D7D7CF" stroke-width="1"/>
<rect x="80" y="158" width="864" height="78" rx="16" fill="#FFFFFF" stroke="#D7D7CF"/>
<text x="108" y="189" text-anchor="start" font-family="Inter,Arial,sans-serif" font-size="16" font-weight="700" fill="#24483D"><tspan x="108" dy="0">Veiligheid</tspan></text>
<text x="350" y="188" text-anchor="middle" font-family="Inter,Arial,sans-serif" font-size="13" font-weight="500" fill="#66706A"><tspan x="350" dy="0">Laag risico</tspan></text>
<line x1="520" y1="197" x2="694" y2="197" stroke="#D7D7CF" stroke-width="6" stroke-linecap="round"/>
<circle cx="552" cy="197" r="9" fill="#D86F48"/>
<text x="830" y="188" text-anchor="middle" font-family="Inter,Arial,sans-serif" font-size="13" font-weight="500" fill="#66706A"><tspan x="830" dy="0">Hoog risico</tspan></text>
<rect x="80" y="246" width="864" height="78" rx="16" fill="#FFFFFF" stroke="#D7D7CF"/>
<text x="108" y="277" text-anchor="start" font-family="Inter,Arial,sans-serif" font-size="16" font-weight="700" fill="#24483D"><tspan x="108" dy="0">Foutkosten</tspan></text>
<text x="350" y="276" text-anchor="middle" font-family="Inter,Arial,sans-serif" font-size="13" font-weight="500" fill="#66706A"><tspan x="350" dy="0">Eenvoudig</tspan><tspan x="350" dy="15">herstelbaar</tspan></text>
<line x1="520" y1="285" x2="694" y2="285" stroke="#D7D7CF" stroke-width="6" stroke-linecap="round"/>
<circle cx="578" cy="285" r="9" fill="#D86F48"/>
<text x="830" y="276" text-anchor="middle" font-family="Inter,Arial,sans-serif" font-size="13" font-weight="500" fill="#66706A"><tspan x="830" dy="0">Duur of verborgen</tspan><tspan x="830" dy="15">herstel</tspan></text>
<rect x="80" y="334" width="864" height="78" rx="16" fill="#FFFFFF" stroke="#D7D7CF"/>
<text x="108" y="365" text-anchor="start" font-family="Inter,Arial,sans-serif" font-size="16" font-weight="700" fill="#24483D"><tspan x="108" dy="0">Vaardigheid</tspan></text>
<text x="350" y="364" text-anchor="middle" font-family="Inter,Arial,sans-serif" font-size="13" font-weight="500" fill="#66706A"><tspan x="350" dy="0">Bekend en</tspan><tspan x="350" dy="15">controleerbaar</tspan></text>
<line x1="520" y1="373" x2="694" y2="373" stroke="#D7D7CF" stroke-width="6" stroke-linecap="round"/>
<circle cx="604" cy="373" r="9" fill="#D86F48"/>
<text x="830" y="364" text-anchor="middle" font-family="Inter,Arial,sans-serif" font-size="13" font-weight="500" fill="#66706A"><tspan x="830" dy="0">Specialistische kennis</tspan></text>
<rect x="80" y="422" width="864" height="78" rx="16" fill="#FFFFFF" stroke="#D7D7CF"/>
<text x="108" y="453" text-anchor="start" font-family="Inter,Arial,sans-serif" font-size="16" font-weight="700" fill="#24483D"><tspan x="108" dy="0">Planning</tspan></text>
<text x="350" y="452" text-anchor="middle" font-family="Inter,Arial,sans-serif" font-size="13" font-weight="500" fill="#66706A"><tspan x="350" dy="0">Weinig</tspan><tspan x="350" dy="15">afhankelijkheden</tspan></text>
<line x1="520" y1="461" x2="694" y2="461" stroke="#D7D7CF" stroke-width="6" stroke-linecap="round"/>
<circle cx="630" cy="461" r="9" fill="#D86F48"/>
<text x="830" y="452" text-anchor="middle" font-family="Inter,Arial,sans-serif" font-size="13" font-weight="500" fill="#66706A"><tspan x="830" dy="0">Blokkeert andere</tspan><tspan x="830" dy="15">vakmensen</tspan></text>
<rect x="80" y="510" width="864" height="78" rx="16" fill="#FFFFFF" stroke="#D7D7CF"/>
<text x="108" y="541" text-anchor="start" font-family="Inter,Arial,sans-serif" font-size="16" font-weight="700" fill="#24483D"><tspan x="108" dy="0">Verantwoordelijkheid</tspan></text>
<text x="350" y="540" text-anchor="middle" font-family="Inter,Arial,sans-serif" font-size="13" font-weight="500" fill="#66706A"><tspan x="350" dy="0">Geen</tspan><tspan x="350" dy="15">keuring/garantie-</tspan><tspan x="350" dy="15">impact</tspan></text>
<line x1="520" y1="549" x2="694" y2="549" stroke="#D7D7CF" stroke-width="6" stroke-linecap="round"/>
<circle cx="656" cy="549" r="9" fill="#D86F48"/>
<text x="830" y="540" text-anchor="middle" font-family="Inter,Arial,sans-serif" font-size="13" font-weight="500" fill="#66706A"><tspan x="830" dy="0">Keuring, garantie of</tspan><tspan x="830" dy="15">aansprakelijkheid</tspan></text>
<text x="160" y="625" text-anchor="start" font-family="Inter,Arial,sans-serif" font-size="13" font-weight="700" fill="#24483D"><tspan x="160" dy="0">Eerder zelf doen</tspan></text>
<text x="864" y="625" text-anchor="end" font-family="Inter,Arial,sans-serif" font-size="13" font-weight="700" fill="#D86F48"><tspan x="864" dy="0">Eerder uitbesteden</tspan></text>
</svg>