<svg xmlns="http://www.w3.org/2000/svg" width="1024" height="672" viewBox="0 0 1024 672" role="img">
<rect width="1024" height="672" fill="#F7F5F0"/>
<path d="M42 0 V94 M58 0 V132" stroke="#24483D" stroke-width="2" opacity=".55"/>
<path d="M982 672 V578 M966 672 V540" stroke="#24483D" stroke-width="2" opacity=".55"/>
<text x="64" y="64" text-anchor="start" font-family="Inter,Arial,sans-serif" font-size="31" font-weight="700" fill="#24483D"><tspan x="64" dy="0">Zonnepanelen: veiligheidsgrenzen</tspan></text>
<text x="64" y="96" text-anchor="start" font-family="Inter,Arial,sans-serif" font-size="16" font-weight="400" fill="#66706A"><tspan x="64" dy="0">Voorbereiding en uitvoering zijn niet hetzelfde</tspan></text>
<line x1="64" y1="118" x2="960" y2="118" stroke="#D7D7CF" stroke-width="1"/>
<rect x="72" y="158" width="210" height="188" rx="22" fill="#FFFFFF" stroke="#D7D7CF"/>
<rect x="72" y="158" width="7" height="188" rx="3.5" fill="#24483D"/>
<circle cx="126" cy="216" r="34" fill="#ECE8DF"/>
<g stroke="#24483D" stroke-width="3" fill="none" stroke-linecap="round" stroke-linejoin="round"><path d="M 111.9 216.94 L 126 204.72 L 140.1 216.94"/><path d="M 116.13 216.94 V 229.16 H 135.87 V 216.94"/></g>
<text x="172" y="206" text-anchor="start" font-family="Inter,Arial,sans-serif" font-size="18" font-weight="700" fill="#24483D"><tspan x="172" dy="0">Werken op hoogte</tspan></text>
<text x="172" y="250" text-anchor="start" font-family="Inter,Arial,sans-serif" font-size="14" font-weight="400" fill="#66706A"><tspan x="172" dy="0">Daktoegang, valrisico</tspan><tspan x="172" dy="16">en bevestiging</tspan></text>
<rect x="310" y="158" width="210" height="188" rx="22" fill="#FFFFFF" stroke="#D7D7CF"/>
<rect x="310" y="158" width="7" height="188" rx="3.5" fill="#D86F48"/>
<circle cx="364" cy="216" r="34" fill="#ECE8DF"/>
<g stroke="#24483D" stroke-width="3" fill="none" stroke-linecap="round" stroke-linejoin="round"><path d="M 349.9 206.6 H 377.16 L 373.87 225.4 H 346.61 Z"/><path d="M 356.01 206.6 L 352.72 225.4 M 363.06 206.6 L 359.77 225.4 M 370.11 206.6 L 366.82 225.4 M 348.49 216 H 375.28"/></g>
<text x="410" y="206" text-anchor="start" font-family="Inter,Arial,sans-serif" font-size="18" font-weight="700" fill="#24483D"><tspan x="410" dy="0">DC-zijde</tspan></text>
<text x="410" y="250" text-anchor="start" font-family="Inter,Arial,sans-serif" font-size="14" font-weight="400" fill="#66706A"><tspan x="410" dy="0">Panelen, connectoren</tspan><tspan x="410" dy="16">en gelijkspanning</tspan></text>
<rect x="72" y="370" width="210" height="188" rx="22" fill="#FFFFFF" stroke="#D7D7CF"/>
<rect x="72" y="370" width="7" height="188" rx="3.5" fill="#24483D"/>
<circle cx="126" cy="428" r="34" fill="#ECE8DF"/>
<g stroke="#24483D" stroke-width="3" fill="none" stroke-linecap="round" stroke-linejoin="round"><path d="M 128.35 413.43 L 118.48 430.35 H 125.53 L 122.24 442.57 L 134.46 424.24 H 127.41 Z"/></g>
<text x="172" y="418" text-anchor="start" font-family="Inter,Arial,sans-serif" font-size="18" font-weight="700" fill="#24483D"><tspan x="172" dy="0">Groepenkast</tspan></text>
<text x="172" y="462" text-anchor="start" font-family="Inter,Arial,sans-serif" font-size="14" font-weight="400" fill="#66706A"><tspan x="172" dy="0">Beveiliging en</tspan><tspan x="172" dy="16">elektrische</tspan><tspan x="172" dy="16">installatie</tspan></text>
<rect x="310" y="370" width="210" height="188" rx="22" fill="#FFFFFF" stroke="#D7D7CF"/>
<rect x="310" y="370" width="7" height="188" rx="3.5" fill="#D86F48"/>
<circle cx="364" cy="428" r="34" fill="#ECE8DF"/>
<g stroke="#24483D" stroke-width="3" fill="none" stroke-linecap="round" stroke-linejoin="round"><circle cx="364" cy="428" r="12.219999999999999"/><path d="M 357.89 428.47 L 362.59 433.17 L 371.99 421.89"/></g>
<text x="410" y="418" text-anchor="start" font-family="Inter,Arial,sans-serif" font-size="18" font-weight="700" fill="#24483D"><tspan x="410" dy="0">Netaansluiting &amp;</tspan><tspan x="410" dy="21">inbedrijfstelling</tspan></text>
<text x="410" y="462" text-anchor="start" font-family="Inter,Arial,sans-serif" font-size="14" font-weight="400" fill="#66706A"><tspan x="410" dy="0">Controle en correcte</tspan><tspan x="410" dy="16">ingebruikname</tspan></text>
</svg>