<svg xmlns="http://www.w3.org/2000/svg" width="1024" height="672" viewBox="0 0 1024 672" role="img">
<rect width="1024" height="672" fill="#F7F5F0"/>
<path d="M42 0 V94 M58 0 V132" stroke="#24483D" stroke-width="2" opacity=".55"/>
<path d="M982 672 V578 M966 672 V540" stroke="#24483D" stroke-width="2" opacity=".55"/>
<text x="64" y="64" text-anchor="start" font-family="Inter,Arial,sans-serif" font-size="31" font-weight="700" fill="#24483D"><tspan x="64" dy="0">Zonnepanelen: veiligheidsgrenzen</tspan></text>
<text x="64" y="96" text-anchor="start" font-family="Inter,Arial,sans-serif" font-size="16" font-weight="400" fill="#66706A"><tspan x="64" dy="0">Voorbereiding en uitvoering zijn niet hetzelfde</tspan></text>
<line x1="64" y1="118" x2="960" y2="118" stroke="#D7D7CF" stroke-width="1"/>
<rect x="82" y="158" width="410" height="188" rx="22" fill="#FFFFFF" stroke="#D7D7CF"/>
<rect x="82" y="158" width="7" height="188" rx="3.5" fill="#24483D"/>
<circle cx="136" cy="216" r="34" fill="#ECE8DF"/>
<g stroke="#24483D" stroke-width="3" fill="none" stroke-linecap="round" stroke-linejoin="round"><path d="M 121.9 216.94 L 136 204.72 L 150.1 216.94"/><path d="M 126.13 216.94 V 229.16 H 145.87 V 216.94"/></g>
<text x="182" y="206" text-anchor="start" font-family="Inter,Arial,sans-serif" font-size="18" font-weight="700" fill="#24483D"><tspan x="182" dy="0">Werken op hoogte</tspan></text>
<text x="182" y="250" text-anchor="start" font-family="Inter,Arial,sans-serif" font-size="14" font-weight="400" fill="#66706A"><tspan x="182" dy="0">Daktoegang, valrisico en bevestiging</tspan></text>
<rect x="532" y="158" width="410" height="188" rx="22" fill="#FFFFFF" stroke="#D7D7CF"/>
<rect x="532" y="158" width="7" height="188" rx="3.5" fill="#D86F48"/>
<circle cx="586" cy="216" r="34" fill="#ECE8DF"/>
<g stroke="#24483D" stroke-width="3" fill="none" stroke-linecap="round" stroke-linejoin="round"><path d="M 571.9 206.6 H 599.16 L 595.87 225.4 H 568.61 Z"/><path d="M 578.01 206.6 L 574.72 225.4 M 585.06 206.6 L 581.77 225.4 M 592.11 206.6 L 588.82 225.4 M 570.49 216 H 597.28"/></g>
<text x="632" y="206" text-anchor="start" font-family="Inter,Arial,sans-serif" font-size="18" font-weight="700" fill="#24483D"><tspan x="632" dy="0">DC-zijde</tspan></text>
<text x="632" y="250" text-anchor="start" font-family="Inter,Arial,sans-serif" font-size="14" font-weight="400" fill="#66706A"><tspan x="632" dy="0">Panelen, connectoren en</tspan><tspan x="632" dy="16">gelijkspanning</tspan></text>
<rect x="82" y="370" width="410" height="188" rx="22" fill="#FFFFFF" stroke="#D7D7CF"/>
<rect x="82" y="370" width="7" height="188" rx="3.5" fill="#24483D"/>
<circle cx="136" cy="428" r="34" fill="#ECE8DF"/>
<g stroke="#24483D" stroke-width="3" fill="none" stroke-linecap="round" stroke-linejoin="round"><path d="M 138.35 413.43 L 128.48 430.35 H 135.53 L 132.24 442.57 L 144.46 424.24 H 137.41 Z"/></g>
<text x="182" y="418" text-anchor="start" font-family="Inter,Arial,sans-serif" font-size="18" font-weight="700" fill="#24483D"><tspan x="182" dy="0">Groepenkast</tspan></text>
<text x="182" y="462" text-anchor="start" font-family="Inter,Arial,sans-serif" font-size="14" font-weight="400" fill="#66706A"><tspan x="182" dy="0">Beveiliging en elektrische</tspan><tspan x="182" dy="16">installatie</tspan></text>
<rect x="532" y="370" width="410" height="188" rx="22" fill="#FFFFFF" stroke="#D7D7CF"/>
<rect x="532" y="370" width="7" height="188" rx="3.5" fill="#D86F48"/>
<circle cx="586" cy="428" r="34" fill="#ECE8DF"/>
<g stroke="#24483D" stroke-width="3" fill="none" stroke-linecap="round" stroke-linejoin="round"><circle cx="586" cy="428" r="12.219999999999999"/><path d="M 579.89 428.47 L 584.59 433.17 L 593.99 421.89"/></g>
<text x="632" y="418" text-anchor="start" font-family="Inter,Arial,sans-serif" font-size="18" font-weight="700" fill="#24483D"><tspan x="632" dy="0">Netaansluiting &amp;</tspan><tspan x="632" dy="21">inbedrijfstelling</tspan></text>
<text x="632" y="462" text-anchor="start" font-family="Inter,Arial,sans-serif" font-size="14" font-weight="400" fill="#66706A"><tspan x="632" dy="0">Controle en correcte ingebruikname</tspan></text>
</svg>